<mxfile host="app.diagrams.net" modified="2020-11-10T09:52:58.737Z" agent="5.0 (Macintosh; Intel Mac OS X 11_0_0) AppleWebKit/537.36 (KHTML, like Gecko) Chrome/86.0.4240.183 Safari/537.36" etag="UGySIiamZbue5I0scmvW" version="13.9.2" type="github">
  <diagram name="Page-1" id="12e1b939-464a-85fe-373e-61e167be1490">
    <mxGraphModel dx="3784" dy="2244" grid="1" gridSize="10" guides="1" tooltips="1" connect="1" arrows="1" fold="1" page="1" pageScale="1.5" pageWidth="1169" pageHeight="826" background="#ffffff" math="0" shadow="0">
      <root>
        <mxCell id="0" />
        <mxCell id="1" parent="0" />
        <mxCell id="7Frq2NpXW5zyajH6qZaY-12" value="" style="rounded=1;whiteSpace=wrap;html=1;shadow=0;" vertex="1" parent="1">
          <mxGeometry x="877" y="1010" width="400" height="310" as="geometry" />
        </mxCell>
        <mxCell id="7Frq2NpXW5zyajH6qZaY-11" value="" style="rounded=1;whiteSpace=wrap;html=1;shadow=0;" vertex="1" parent="1">
          <mxGeometry x="440" y="1010" width="400" height="310" as="geometry" />
        </mxCell>
        <mxCell id="7Frq2NpXW5zyajH6qZaY-10" value="" style="rounded=1;whiteSpace=wrap;html=1;shadow=0;" vertex="1" parent="1">
          <mxGeometry y="1010" width="400" height="310" as="geometry" />
        </mxCell>
        <mxCell id="60da8b9f42644d3a-2" value="DB" style="whiteSpace=wrap;html=1;rounded=1;shadow=0;strokeWidth=8;fontSize=20;align=center;fillColor=#FED217;strokeColor=#FFFFFF;" parent="1" vertex="1">
          <mxGeometry x="450" y="1180" width="180" height="120" as="geometry" />
        </mxCell>
        <mxCell id="7Frq2NpXW5zyajH6qZaY-1" value="ES" style="whiteSpace=wrap;html=1;rounded=1;shadow=0;strokeWidth=8;fontSize=20;align=center;fillColor=#FED217;strokeColor=#FFFFFF;" vertex="1" parent="1">
          <mxGeometry x="650" y="1180" width="180" height="120" as="geometry" />
        </mxCell>
        <mxCell id="7Frq2NpXW5zyajH6qZaY-2" value="DB" style="whiteSpace=wrap;html=1;rounded=1;shadow=0;strokeWidth=8;fontSize=20;align=center;fillColor=#FED217;strokeColor=#FFFFFF;" vertex="1" parent="1">
          <mxGeometry x="450" y="1040" width="180" height="120" as="geometry" />
        </mxCell>
        <mxCell id="7Frq2NpXW5zyajH6qZaY-3" value="DB" style="whiteSpace=wrap;html=1;rounded=1;shadow=0;strokeWidth=8;fontSize=20;align=center;fillColor=#FED217;strokeColor=#FFFFFF;" vertex="1" parent="1">
          <mxGeometry x="890" y="1180" width="180" height="120" as="geometry" />
        </mxCell>
        <mxCell id="7Frq2NpXW5zyajH6qZaY-4" value="ES" style="whiteSpace=wrap;html=1;rounded=1;shadow=0;strokeWidth=8;fontSize=20;align=center;fillColor=#FED217;strokeColor=#FFFFFF;" vertex="1" parent="1">
          <mxGeometry x="1090" y="1180" width="180" height="120" as="geometry" />
        </mxCell>
        <mxCell id="7Frq2NpXW5zyajH6qZaY-5" value="ES" style="whiteSpace=wrap;html=1;rounded=1;shadow=0;strokeWidth=8;fontSize=20;align=center;fillColor=#FED217;strokeColor=#FFFFFF;" vertex="1" parent="1">
          <mxGeometry x="1090" y="1040" width="180" height="120" as="geometry" />
        </mxCell>
        <mxCell id="7Frq2NpXW5zyajH6qZaY-6" value="DB" style="whiteSpace=wrap;html=1;rounded=1;shadow=0;strokeWidth=8;fontSize=20;align=center;fillColor=#FED217;strokeColor=#FFFFFF;" vertex="1" parent="1">
          <mxGeometry x="10" y="1180" width="180" height="120" as="geometry" />
        </mxCell>
        <mxCell id="7Frq2NpXW5zyajH6qZaY-7" value="ES" style="whiteSpace=wrap;html=1;rounded=1;shadow=0;strokeWidth=8;fontSize=20;align=center;fillColor=#FED217;strokeColor=#FFFFFF;" vertex="1" parent="1">
          <mxGeometry x="210" y="1180" width="180" height="120" as="geometry" />
        </mxCell>
        <mxCell id="7Frq2NpXW5zyajH6qZaY-8" value="DB" style="whiteSpace=wrap;html=1;rounded=1;shadow=0;strokeWidth=8;fontSize=20;align=center;fillColor=#FED217;strokeColor=#FFFFFF;" vertex="1" parent="1">
          <mxGeometry x="10" y="1040" width="180" height="120" as="geometry" />
        </mxCell>
        <mxCell id="7Frq2NpXW5zyajH6qZaY-9" value="ES" style="whiteSpace=wrap;html=1;rounded=1;shadow=0;strokeWidth=8;fontSize=20;align=center;fillColor=#FED217;strokeColor=#FFFFFF;" vertex="1" parent="1">
          <mxGeometry x="210" y="1040" width="180" height="120" as="geometry" />
        </mxCell>
        <mxCell id="7Frq2NpXW5zyajH6qZaY-13" value="" style="rounded=1;whiteSpace=wrap;html=1;shadow=0;" vertex="1" parent="1">
          <mxGeometry y="1410" width="400" height="310" as="geometry" />
        </mxCell>
        <mxCell id="7Frq2NpXW5zyajH6qZaY-14" value="DB" style="whiteSpace=wrap;html=1;rounded=1;shadow=0;strokeWidth=8;fontSize=20;align=center;fillColor=#FED217;strokeColor=#FFFFFF;" vertex="1" parent="1">
          <mxGeometry x="10" y="1580" width="180" height="120" as="geometry" />
        </mxCell>
        <mxCell id="7Frq2NpXW5zyajH6qZaY-16" value="DB" style="whiteSpace=wrap;html=1;rounded=1;shadow=0;strokeWidth=8;fontSize=20;align=center;fillColor=#FED217;strokeColor=#FFFFFF;" vertex="1" parent="1">
          <mxGeometry x="10" y="1440" width="180" height="120" as="geometry" />
        </mxCell>
        <mxCell id="7Frq2NpXW5zyajH6qZaY-18" value="" style="rounded=1;whiteSpace=wrap;html=1;shadow=0;" vertex="1" parent="1">
          <mxGeometry x="440" y="1410" width="400" height="310" as="geometry" />
        </mxCell>
        <mxCell id="7Frq2NpXW5zyajH6qZaY-20" value="ES" style="whiteSpace=wrap;html=1;rounded=1;shadow=0;strokeWidth=8;fontSize=20;align=center;fillColor=#FED217;strokeColor=#FFFFFF;" vertex="1" parent="1">
          <mxGeometry x="650" y="1580" width="180" height="120" as="geometry" />
        </mxCell>
        <mxCell id="7Frq2NpXW5zyajH6qZaY-22" value="ES" style="whiteSpace=wrap;html=1;rounded=1;shadow=0;strokeWidth=8;fontSize=20;align=center;fillColor=#FED217;strokeColor=#FFFFFF;" vertex="1" parent="1">
          <mxGeometry x="650" y="1440" width="180" height="120" as="geometry" />
        </mxCell>
      </root>
    </mxGraphModel>
  </diagram>
</mxfile>
